<svg width="92" height="39" viewBox="0 0 92 39" fill="none" xmlns="http://www.w3.org/2000/svg">
<path d="M3.496 18.6533L15.5173 10.9867V15.7093L7.78933 20.3707V20.4933L15.5173 25.1547V29.8773L3.496 22.2107V18.6533ZM61.4814 34.9067H57.1267L67.2467 8.22667H71.6014L61.4814 34.9067ZM88.4561 22.2107L76.4347 29.8773V25.1547L84.1627 20.4933V20.3707L76.4347 15.7093V10.9867L88.4561 18.6533V22.2107Z" fill="#E5E5E5"/>
<path d="M19.6147 20.1867C19.6147 18.5102 19.86 17.0178 20.3507 15.7093C20.8414 14.4009 21.5058 13.3071 22.344 12.428C23.2027 11.5284 24.2045 10.8538 25.3494 10.404C26.4942 9.93378 27.7107 9.69867 28.9987 9.69867C30.348 9.69867 31.5134 9.96444 32.4947 10.496C33.476 11.0071 34.2938 11.6 34.948 12.2747L32.0654 15.5253C31.6565 15.1164 31.2169 14.7996 30.7467 14.5747C30.2969 14.3498 29.7142 14.2373 28.9987 14.2373C28.4467 14.2373 27.9254 14.3702 27.4347 14.636C26.9645 14.9018 26.5454 15.28 26.1774 15.7707C25.8298 16.2613 25.5538 16.8644 25.3494 17.58C25.1449 18.2956 25.0427 19.1031 25.0427 20.0027C25.0427 21.8836 25.3902 23.3249 26.0854 24.3267C26.7805 25.3284 27.8436 25.8293 29.2747 25.8293C29.52 25.8293 29.7654 25.7987 30.0107 25.7373C30.256 25.676 30.4605 25.584 30.624 25.4613V22.7013H28.14V18.408H35.316V27.9147C34.9685 28.2213 34.5596 28.528 34.0894 28.8347C33.6396 29.1209 33.1387 29.3764 32.5867 29.6013C32.0347 29.8262 31.452 30.0102 30.8387 30.1533C30.2254 30.2964 29.6018 30.368 28.968 30.368C27.68 30.368 26.4636 30.1636 25.3187 29.7547C24.1942 29.3253 23.2027 28.6916 22.344 27.8533C21.5058 26.9947 20.8414 25.9316 20.3507 24.664C19.86 23.376 19.6147 21.8836 19.6147 20.1867ZM38.524 10.0667H43.8294V17.488H43.952L48.8587 10.0667H54.6547L48.7974 18.1627L55.1454 30H49.3494L45.7307 22.3333L43.8294 25.032V30H38.524V10.0667Z" fill="#FFB400"/>
</svg>
