<svg width="294" height="335" viewBox="0 0 294 335" fill="none" xmlns="http://www.w3.org/2000/svg">
<path fill-rule="evenodd" clip-rule="evenodd" d="M202.738 41.4901C207.346 36.0814 210.464 29.4529 209.943 22.0255C208.442 0.624979 178.651 5.33281 172.857 16.1339C167.062 26.9351 167.75 54.333 175.24 56.2635C178.226 57.0333 184.589 55.1475 191.065 51.2443L187 80H211L202.738 41.4901Z" fill="#915B3C"/>
<path fill-rule="evenodd" clip-rule="evenodd" d="M204.582 46.3075C207.594 32.9065 216.175 23.7714 214.865 17.7817C213.991 13.7886 211.662 11.3054 207.879 10.3321C205.922 2.4155 199.61 -0.951751 188.944 0.230376C172.945 2.00357 163.181 8.64776 167.398 23.2679C171.274 23.2679 175.954 21.866 182.424 24.2679C184.478 25.03 185.946 27.3934 186.83 31.358H189.754C192.592 26.6531 195.391 24.9241 198.149 26.1712C200.908 27.4183 201.535 30.4474 200.03 35.2586L201.471 46.3075H204.582Z" fill="#191847"/>
<path fill-rule="evenodd" clip-rule="evenodd" d="M278 205H163C154.163 205 147 212.163 147 221V313C147 321.837 154.163 329 163 329H278C286.837 329 294 321.837 294 313V221C294 212.163 286.837 205 278 205ZM262 233C264.209 233 266 234.791 266 237V297C266 299.209 264.209 301 262 301H179C176.791 301 175 299.209 175 297V237C175 234.791 176.791 233 179 233H262Z" fill="#C5CFD6"/>
<path fill-rule="evenodd" clip-rule="evenodd" d="M47.841 324C67.5569 299.924 80.8971 282.075 87.8617 270.454C99.7868 250.555 109.547 232.848 112.627 226.084C119.972 209.955 95.7181 202.403 90.229 209.926C81.9209 221.312 64.178 257.143 37 317.417L47.841 324Z" fill="#B28B67"/>
<path fill-rule="evenodd" clip-rule="evenodd" d="M88.2424 317L124.935 224.637C132.783 207.8 94.8842 196.732 89.1167 204.568C76.0227 222.357 44.9012 292.534 41 297.834L88.2424 317Z" fill="#2F3676"/>
<path fill-rule="evenodd" clip-rule="evenodd" d="M185.967 298.477C178.819 288.051 152.821 252.974 138.661 238.461C134.592 234.291 130.621 230.288 126.866 226.557C115.704 215.47 93.4763 234.106 104.618 244.205C132.365 269.355 172.849 303.307 176.231 306.334C180.972 310.577 190.459 305.029 185.967 298.477Z" fill="#915B3C"/>
<path fill-rule="evenodd" clip-rule="evenodd" d="M184.295 293.767C186.758 295.794 188.359 297.45 189.101 298.734C190.002 300.296 191.058 302.725 192.267 306.021C190.456 307.067 174.174 316.467 143.422 334.222C139.73 330.759 139.155 328.07 141.696 326.157C144.238 324.243 146.335 322.629 147.988 321.315L164.848 298.087C165.172 297.64 165.798 297.54 166.244 297.865C166.252 297.87 166.26 297.876 166.267 297.882L169.77 300.579C172.984 300.299 175.382 299.702 176.965 298.788C178.251 298.045 179.727 296.501 181.393 294.154L181.393 294.154C182.033 293.253 183.281 293.041 184.182 293.681C184.221 293.708 184.259 293.737 184.295 293.767Z" fill="#E4E4E4"/>
<path fill-rule="evenodd" clip-rule="evenodd" d="M56.3219 320.402C57.4406 323.388 58 325.623 58 327.106C58 328.909 57.6996 331.54 57.0988 335C55.0068 335 36.2062 335 0.696945 335C-0.768738 330.155 0.0773382 327.539 3.23518 327.152C6.39301 326.766 9.01628 326.417 11.105 326.106L37.32 314.419C37.8244 314.194 38.4157 314.421 38.6405 314.925C38.6444 314.934 38.6481 314.942 38.6517 314.951L40.3368 319.039C43.2601 320.403 45.6356 321.085 47.4633 321.085C48.9483 321.085 50.999 320.485 53.6155 319.286L53.6155 319.285C54.6196 318.825 55.8067 319.266 56.267 320.27C56.2869 320.313 56.3052 320.357 56.3219 320.402Z" fill="#E4E4E4"/>
<path fill-rule="evenodd" clip-rule="evenodd" d="M138.138 229.25C168.635 224.282 189.062 220.884 199.419 219.058C228.943 213.852 237.552 197.965 232.462 163.302H178.066C170.867 165.381 140.79 178.237 87.8325 201.872C78.3045 206.602 80.0789 220.548 81.8204 225.142C81.8915 225.329 97.9539 252.853 130.008 307.713L174.506 279.366L138.054 232.59C137.092 230.652 137.12 229.538 138.138 229.25Z" fill="#5C63AB"/>
<path fill-rule="evenodd" clip-rule="evenodd" d="M134.219 150.211L102.321 173.635C93.6691 175.97 86.441 178.874 80.6365 182.349C79.2653 183.598 77.6082 186.128 83.2946 185.691C88.9811 185.254 94.982 185.049 95.7667 186.989C96.5513 188.929 93.1102 191.248 94.6962 193.865C95.7536 195.61 100.749 191.235 109.683 180.741L141.27 167.642L134.219 150.211ZM256.692 151.02L235.795 151.102C248.698 192.756 255.664 214.857 256.692 217.406C259.006 223.14 254.109 231.874 252.015 236.567C258.835 239.619 258.109 228.317 266.712 232.319C274.565 235.973 280.538 242.592 289.611 236.994C290.726 236.306 291.949 233.715 288.995 231.69C281.638 226.645 271.035 217.815 269.602 214.908C267.648 210.945 263.345 189.649 256.692 151.02Z" fill="#915B3C"/>
<path fill-rule="evenodd" clip-rule="evenodd" d="M197.305 63.3321L188.658 61.8489C156.575 89.5643 143.397 142.809 104.07 171.015L113.536 182.748C181.76 174.301 198.67 109.355 197.305 63.3321Z" fill="#E87613"/>
<path fill-rule="evenodd" clip-rule="evenodd" d="M235 172C200.328 172 174.824 172 158.489 172C154.992 172 155.651 166.952 156.157 164.404C161.989 135.004 184.759 103.312 184.759 61.4607L206.828 58C225.083 87.3584 231.395 123.505 235 172Z" fill="#DDE3E9"/>
<path fill-rule="evenodd" clip-rule="evenodd" d="M234.385 86.858C237.59 85.9366 240.129 83.7877 242 80.4112C250.066 65.8561 247.153 57.8424 238.533 55.2083C229.912 52.5741 222.225 58 208.49 58C207.743 58 207.059 58.0468 206.437 58.1405L199.528 58.5347C179.706 125.715 174.239 170.537 183.128 193H243.348C246.916 201.32 250.33 208.32 253.591 214H270C271.544 164.067 259.673 121.686 234.385 86.858Z" fill="#FF9B21"/>
<path fill-rule="evenodd" clip-rule="evenodd" d="M230.235 158.498C228.341 174.344 225.263 185.845 221 193H243.348C239.186 183.295 234.815 171.794 230.235 158.498V158.498Z" fill="black" fill-opacity="0.1"/>
</svg>
